<svg id="Сгруппировать_551" data-name="Сгруппировать 551" xmlns="http://www.w3.org/2000/svg" width="28" height="17"
     viewBox="0 0 28 17">
    <g id="Сгруппировать_545">
        <path id="Контур_6373"
              d="M26.5,5H7.5A1.538,1.538,0,0,1,6,3.5v-2A1.538,1.538,0,0,1,7.5,0h19A1.538,1.538,0,0,1,28,1.5v2A1.538,1.538,0,0,1,26.5,5ZM8,3H26V2H8Z"
              fill="#001218"/>
    </g>
    <g id="Сгруппировать_546">
        <path id="Контур_6374"
              d="M26.5,11H7.5A1.538,1.538,0,0,1,6,9.5v-2A1.538,1.538,0,0,1,7.5,6h19A1.538,1.538,0,0,1,28,7.5v2A1.538,1.538,0,0,1,26.5,11ZM8,9H26V8H8Z"
              fill="#001218"/>
    </g>
    <g id="Сгруппировать_547">
        <path id="Контур_6375"
              d="M26.5,17H7.5A1.538,1.538,0,0,1,6,15.5v-2A1.538,1.538,0,0,1,7.5,12h19A1.538,1.538,0,0,1,28,13.5v2A1.538,1.538,0,0,1,26.5,17ZM8,15H26V14H8Z"
              fill="#001218"/>
    </g>
    <g id="Сгруппировать_548">
        <path id="Контур_6376"
              d="M3.5,5h-2A1.538,1.538,0,0,1,0,3.5v-2A1.538,1.538,0,0,1,1.5,0h2A1.538,1.538,0,0,1,5,1.5v2A1.538,1.538,0,0,1,3.5,5ZM2,3H3V2H2Z"
              fill="#001218"/>
    </g>
    <g id="Сгруппировать_549">
        <path id="Контур_6377"
              d="M3.5,11h-2A1.538,1.538,0,0,1,0,9.5v-2A1.538,1.538,0,0,1,1.5,6h2A1.538,1.538,0,0,1,5,7.5v2A1.538,1.538,0,0,1,3.5,11ZM2,9H3V8H2Z"
              fill="#001218"/>
    </g>
    <g id="Сгруппировать_550">
        <path id="Контур_6378"
              d="M3.5,17h-2A1.538,1.538,0,0,1,0,15.5v-2A1.538,1.538,0,0,1,1.5,12h2A1.538,1.538,0,0,1,5,13.5v2A1.538,1.538,0,0,1,3.5,17ZM2,15H3V14H2Z"
              fill="#001218"/>
    </g>
</svg>
