<svg xmlns="http://www.w3.org/2000/svg" width="24" height="12" viewBox="0 0 24 12">
    <path id="Контур_6358"
          d="M21,0a2.946,2.946,0,0,0-3,3,2.768,2.768,0,0,0,.3,1.3h0l-2,2h0a2.967,2.967,0,0,0-2.6,0h0l-2-2h0A2.768,2.768,0,0,0,12,3,2.946,2.946,0,0,0,9,0,2.946,2.946,0,0,0,6,3a2.768,2.768,0,0,0,.3,1.3h0l-2,2h0A2.768,2.768,0,0,0,3,6,2.946,2.946,0,0,0,0,9a2.946,2.946,0,0,0,3,3A2.946,2.946,0,0,0,6,9a2.768,2.768,0,0,0-.3-1.3h0l2-2h0A2.768,2.768,0,0,0,9,6a2.768,2.768,0,0,0,1.3-.3h0l2,2h0A2.768,2.768,0,0,0,12,9a3,3,0,0,0,6,0,2.768,2.768,0,0,0-.3-1.3h0l2-2h0A2.768,2.768,0,0,0,21,6a2.946,2.946,0,0,0,3-3A2.946,2.946,0,0,0,21,0ZM3,10A.945.945,0,0,1,2,9,.945.945,0,0,1,3,8,.945.945,0,0,1,4,9,.945.945,0,0,1,3,10ZM9,4A.945.945,0,0,1,8,3,.945.945,0,0,1,9,2a.945.945,0,0,1,1,1A.945.945,0,0,1,9,4Zm6,6a.945.945,0,0,1-1-1,1,1,0,0,1,2,0A.945.945,0,0,1,15,10Zm6-6a.945.945,0,0,1-1-1,1,1,0,0,1,2,0A.945.945,0,0,1,21,4Z"
          fill="#001218"/>
</svg>
