<svg xmlns="http://www.w3.org/2000/svg" width="16.098" height="14.195" viewBox="0 0 16.098 14.195">
    <path id="Контур_6455"
          d="M14.815,2.134a4.218,4.218,0,0,0-5.956,0L1.036,9.957a3.177,3.177,0,0,0-1.08,2.452,2.847,2.847,0,0,0,.862,1.833A2.436,2.436,0,0,0,2.9,14.99a3.732,3.732,0,0,0,2.136-1.178L11.18,7.673A.9.9,0,1,0,9.906,6.4L3.768,12.539a2.093,2.093,0,0,1-1.086.665.673.673,0,0,1-.592-.235,1.1,1.1,0,0,1-.338-.666,1.5,1.5,0,0,1,.557-1.073l7.823-7.823a2.412,2.412,0,0,1,3.411,3.41L6.8,13.562a.9.9,0,1,0,1.272,1.272L14.815,8.09a4.21,4.21,0,0,0,0-5.956Z"
          transform="translate(0.049 -0.903)" fill="#4364f7"/>
</svg>
