<svg id="Сгруппировать_627" data-name="Сгруппировать 627" xmlns="http://www.w3.org/2000/svg" width="16" height="16"
     viewBox="0 0 16 16">
    <g id="Сгруппировать_625">
        <path id="Контур_6438"
              d="M3,11H2A2,2,0,0,1,0,9V2A2,2,0,0,1,2,0H9a2,2,0,0,1,2,2V3A1,1,0,0,1,9,3V2H2V9H3a1,1,0,0,1,0,2Z"
              fill="#4364f7"/>
    </g>
    <g id="Сгруппировать_626">
        <path id="Контур_6439"
              d="M14,16H7a2,2,0,0,1-2-2V7A2,2,0,0,1,7,5h7a2,2,0,0,1,2,2v7A2,2,0,0,1,14,16ZM7,7v7h7l0-7Z"
              fill="#4364f7"/>
    </g>
</svg>
