<svg xmlns="http://www.w3.org/2000/svg" width="15.091" height="15" viewBox="0 0 15.091 15">
    <g id="Сгруппировать_592" transform="translate(1.5 1.5)">
        <g id="Сгруппировать_590">
            <path id="Контур_6392"
                  d="M0,13a1,1,0,0,1-.707-.293,1,1,0,0,1,0-1.414l12-12a1,1,0,0,1,1.414,0,1,1,0,0,1,0,1.414l-12,12A1,1,0,0,1,0,13Z"
                  fill="#fff" stroke="rgba(0,0,0,0)" stroke-miterlimit="10" stroke-width="1"/>
        </g>
        <g id="Сгруппировать_591">
            <path id="Контур_6393"
                  d="M12,13a1,1,0,0,1-.707-.293l-12-12a1,1,0,0,1,0-1.414,1,1,0,0,1,1.414,0l12,12A1,1,0,0,1,12,13Z"
                  fill="#fff" stroke="rgba(0,0,0,0)" stroke-miterlimit="10" stroke-width="1"/>
        </g>
    </g>
</svg>
