<svg id="Сгруппировать_557" data-name="Сгруппировать 557" xmlns="http://www.w3.org/2000/svg" width="18" height="18"
     viewBox="0 0 18 18">
    <g id="Сгруппировать_552">
        <path id="Контур_6380"
              d="M6,8H2A2.006,2.006,0,0,1,0,6V2A2.006,2.006,0,0,1,2,0H6A2.006,2.006,0,0,1,8,2V6A2.006,2.006,0,0,1,6,8ZM2,2V6H6V2Z"
              fill="#4364f7"/>
    </g>
    <g id="Сгруппировать_553">
        <path id="Контур_6381"
              d="M6,18H2a2.006,2.006,0,0,1-2-2V12a2.006,2.006,0,0,1,2-2H6a2.006,2.006,0,0,1,2,2v4A2.006,2.006,0,0,1,6,18ZM2,12v4H6V12Z"
              fill="#4364f7"/>
    </g>
    <g id="Сгруппировать_556">
        <g id="Сгруппировать_554">
            <path id="Контур_6382"
                  d="M16,8H12a2.006,2.006,0,0,1-2-2V2a2.006,2.006,0,0,1,2-2h4a2.006,2.006,0,0,1,2,2V6A2.006,2.006,0,0,1,16,8ZM12,2V6h4V2Z"
                  fill="#4364f7"/>
        </g>
        <g id="Сгруппировать_555">
            <path id="Контур_6383"
                  d="M16,18H12a2.006,2.006,0,0,1-2-2V12a2.006,2.006,0,0,1,2-2h4a2.006,2.006,0,0,1,2,2v4A2.006,2.006,0,0,1,16,18Zm-4-6v4h4V12Z"
                  fill="#4364f7"/>
        </g>
    </g>
</svg>
