<svg xmlns="http://www.w3.org/2000/svg" width="42.529" height="39.5" viewBox="0 0 42.529 39.5">
    <g id="Сгруппировать_598"  transform="translate(-31.3 -35)">
        <path id="Контур_6394"  d="M190.8,35.5,174.6,47.535l3-7.1Z"
              transform="translate(-119.544)" fill="#e2761b" stroke="#e2761b" stroke-linecap="round"
              stroke-linejoin="round" stroke-width="1"/>
        <g id="Сгруппировать_593"  transform="translate(32.142 35.5)">
            <path id="Контур_6395"  d="M44.4,35.5,60.474,47.649l-2.85-7.215Z"
                  transform="translate(-42.69 -35.5)" fill="#e4761b" stroke="#e4761b" stroke-linecap="round"
                  stroke-linejoin="round" stroke-width="1"/>
            <path id="Контур_6396"  d="M216.116,206.8l-4.316,6.612,9.234,2.541,2.655-9.006Z"
                  transform="translate(-182.827 -178.902)" fill="#e4761b" stroke="#e4761b" stroke-linecap="round"
                  stroke-linejoin="round" stroke-width="1"/>
            <path id="Контур_6397"  d="M33.9,206.947l2.638,9.006,9.234-2.541L41.457,206.8Z"
                  transform="translate(-33.9 -178.902)" fill="#e4761b" stroke="#e4761b" stroke-linecap="round"
                  stroke-linejoin="round" stroke-width="1"/>
            <path id="Контур_6398"  d="M90.373,109.654,87.8,113.546l9.169.407-.326-9.853Z"
                  transform="translate(-79.022 -92.928)" fill="#e4761b" stroke="#e4761b" stroke-linecap="round"
                  stroke-linejoin="round" stroke-width="1"/>
            <path id="Контур_6399"  d="M181.163,109.068l-6.352-5.668-.212,9.967,9.153-.407Z"
                  transform="translate(-151.686 -92.342)" fill="#e4761b" stroke="#e4761b" stroke-linecap="round"
                  stroke-linejoin="round" stroke-width="1"/>
            <path id="Контур_6400"  d="M106.8,214.5l5.5-2.687-4.756-3.713Z"
                  transform="translate(-94.928 -179.99)" fill="#e4761b" stroke="#e4761b" stroke-linecap="round"
                  stroke-linejoin="round" stroke-width="1"/>
            <path id="Контур_6401" d="M177.9,211.813l5.521,2.687-.765-6.4Z"
                  transform="translate(-154.448 -179.99)" fill="#e4761b" stroke="#e4761b" stroke-linecap="round"
                  stroke-linejoin="round" stroke-width="1"/>
        </g>
        <g id="Сгруппировать_594"  transform="translate(44.014 67.323)">
            <path id="Контур_6402"  d="M183.421,233.587,177.9,230.9l.44,3.6-.049,1.515Z"
                  transform="translate(-166.321 -230.9)" fill="#d7c1b3" stroke="#d7c1b3" stroke-linecap="round"
                  stroke-linejoin="round" stroke-width="1"/>
            <path id="Контур_6403"  d="M106.8,233.587l5.13,2.427L111.9,234.5l.407-3.6Z"
                  transform="translate(-106.8 -230.9)" fill="#d7c1b3" stroke="#d7c1b3" stroke-linecap="round"
                  stroke-linejoin="round" stroke-width="1"/>
        </g>
        <path id="Контур_6404"  d="M115.193,178.934l-4.593-1.352,3.241-1.482Z"
              transform="translate(-65.967 -117.702)" fill="#233447" stroke="#233447" stroke-linecap="round"
              stroke-linejoin="round" stroke-width="1"/>
        <path id="Контур_6405"  d="M179.7,178.934l1.352-2.834,3.257,1.482Z"
              transform="translate(-123.813 -117.702)" fill="#233447" stroke="#233447" stroke-linecap="round"
              stroke-linejoin="round" stroke-width="1"/>
        <g id="Сгруппировать_595"  transform="translate(39.699 56.118)">
            <path id="Контур_6406"  d="M84.616,213.412,85.4,206.8l-5.1.147Z"
                  transform="translate(-80.3 -199.52)" fill="#cd6116" stroke="#cd6116" stroke-linecap="round"
                  stroke-linejoin="round" stroke-width="1"/>
            <path id="Контур_6407"  d="M207,206.8l.782,6.612,4.316-6.466Z"
                  transform="translate(-186.366 -199.52)" fill="#cd6116" stroke="#cd6116" stroke-linecap="round"
                  stroke-linejoin="round" stroke-width="1"/>
            <path id="Контур_6408"
                  d="M183.753,162.1l-9.153.407.847,4.707,1.352-2.834,3.257,1.482Z"
                  transform="translate(-159.242 -162.1)" fill="#cd6116" stroke="#cd6116" stroke-linecap="round"
                  stroke-linejoin="round" stroke-width="1"/>
            <path id="Контур_6409"
                  d="M91.513,165.862l3.257-1.482,1.335,2.834.863-4.707L87.8,162.1Z"
                  transform="translate(-86.579 -162.1)" fill="#cd6116" stroke="#cd6116" stroke-linecap="round"
                  stroke-linejoin="round" stroke-width="1"/>
        </g>
        <g id="Сгруппировать_596"  transform="translate(40.92 56.118)">
            <path id="Контур_6410"  d="M87.8,162.1l3.843,7.492-.13-3.729Z"
                  transform="translate(-87.8 -162.1)" fill="#e4751f" stroke="#e4751f" stroke-linecap="round"
                  stroke-linejoin="round" stroke-width="1"/>
            <path id="Контур_6411"  d="M207.263,165.862l-.163,3.729,3.86-7.492Z"
                  transform="translate(-187.671 -162.1)" fill="#e4751f" stroke="#e4751f" stroke-linecap="round"
                  stroke-linejoin="round" stroke-width="1"/>
            <path id="Контур_6412"  d="M139.663,164.6l-.863,4.707,1.075,5.554.244-7.312Z"
                  transform="translate(-130.494 -164.193)" fill="#e4751f" stroke="#e4751f" stroke-linecap="round"
                  stroke-linejoin="round" stroke-width="1"/>
            <path id="Контур_6413"  d="M172.34,164.6l-.44,2.931.2,7.329,1.091-5.554Z"
                  transform="translate(-158.204 -164.193)" fill="#e4751f" stroke="#e4751f" stroke-linecap="round"
                  stroke-linejoin="round" stroke-width="1"/>
        </g>
        <path id="Контур_6414"  d="M174.191,186.552l-1.091,5.554.782.537,4.755-3.713.163-3.729Z"
              transform="translate(-118.288 -125.32)" fill="#f6851b" stroke="#f6851b" stroke-linecap="round"
              stroke-linejoin="round" stroke-width="1"/>
        <path id="Контур_6415"  d="M110.6,185.2l.13,3.729,4.756,3.713.782-.537-1.075-5.554Z"
              transform="translate(-65.967 -125.32)" fill="#f6851b" stroke="#f6851b" stroke-linecap="round"
              stroke-linejoin="round" stroke-width="1"/>
        <path id="Контур_6416"
              d="M118.77,249.827l.049-1.515-.407-.358h-6.14l-.375.358.033,1.515L106.8,247.4l1.791,1.466,3.632,2.524h6.238l3.648-2.524L123.9,247.4Z"
              transform="translate(-62.786 -177.39)" fill="#c0ad9e" stroke="#c0ad9e" stroke-linecap="round"
              stroke-linejoin="round" stroke-width="1"/>
        <path id="Контур_6417"
              d="M144.582,228.137l-.782-.537h-4.511l-.782.537-.407,3.6.375-.358h6.14l.407.358Z"
              transform="translate(-88.988 -160.815)" fill="#161616" stroke="#161616" stroke-linecap="round"
              stroke-linejoin="round" stroke-width="1"/>
        <g id="Сгруппировать_597"  transform="translate(31.8 35.5)">
            <path id="Контур_6418"
                  d="M194.251,48.317l1.384-6.645L193.567,35.5,177.9,47.128l6.026,5.1,8.518,2.492,1.889-2.2-.814-.586,1.3-1.189-1.01-.782,1.3-.993Z"
                  transform="translate(-154.106 -35.5)" fill="#763d16" stroke="#763d16" stroke-linecap="round"
                  stroke-linejoin="round" stroke-width="1"/>
            <path id="Контур_6419"
                  d="M31.8,41.672l1.384,6.645-.879.651,1.3.993-.993.782,1.3,1.189-.814.586,1.873,2.2,8.518-2.492,6.026-5.1L33.852,35.5Z"
                  transform="translate(-31.8 -35.5)" fill="#763d16" stroke="#763d16" stroke-linecap="round"
                  stroke-linejoin="round" stroke-width="1"/>
        </g>
        <path id="Контур_6420"
              d="M216.888,140.692,208.37,138.2l2.589,3.892-3.86,7.492,5.081-.065h7.573Z"
              transform="translate(-146.751 -85.974)" fill="#f6851b" stroke="#f6851b" stroke-linecap="round"
              stroke-linejoin="round" stroke-width="1"/>
        <path id="Контур_6421"
              d="M45.251,138.2l-8.518,2.492L33.9,149.519h7.557l5.065.065-3.843-7.492Z"
              transform="translate(-1.758 -85.974)" fill="#f6851b" stroke="#f6851b" stroke-linecap="round"
              stroke-linejoin="round" stroke-width="1"/>
        <path id="Контур_6422"
              d="M133.58,81.891l.537-9.4,2.475-6.694H125.6l2.443,6.694.57,9.4.2,2.964.016,7.3h4.511l.033-7.3Z"
              transform="translate(-78.524 -25.365)" fill="#f6851b" stroke="#f6851b" stroke-linecap="round"
              stroke-linejoin="round" stroke-width="1"/>
    </g>
</svg>
