<svg xmlns="http://www.w3.org/2000/svg" width="17.949" height="15.9" viewBox="0 0 17.949 15.9">
    <g id="Сгруппировать_522" transform="translate(-0.026)">
        <g id="Сгруппировать_520" >
            <path id="Контур_6354"
                  d="M17,7.9a1.421,1.421,0,0,1-.6-.2L9,2.1,1.6,7.7A1.075,1.075,0,0,1,.2,7.5,1.058,1.058,0,0,1,.4,6.1L8.1.3A1.5,1.5,0,0,1,9.9.3l7.7,5.8a1.075,1.075,0,0,1,.2,1.4A1.234,1.234,0,0,1,17,7.9Z"
                  fill="#4364f7"/>
        </g>
        <g id="Сгруппировать_521" >
            <path id="Контур_6355"
                  d="M14.5,15.9H10v-4H8.1v4H3.5A1.538,1.538,0,0,1,2,14.4V4.9H4v9H6.1V11.4A1.538,1.538,0,0,1,7.6,9.9H12v4h2v-9h2v9.5A1.538,1.538,0,0,1,14.5,15.9Z"
                  fill="#4364f7"/>
        </g>
    </g>
</svg>
