<svg id="Сгруппировать_570" data-name="Сгруппировать 570" xmlns="http://www.w3.org/2000/svg" width="12" height="12"
     viewBox="0 0 12 12">
    <g id="Сгруппировать_565" >
        <path id="Контур_6389"
              d="M10,12H2a2,2,0,0,1-2-2V2A2,2,0,0,1,2,0H4A1,1,0,0,1,4,2H2v8h8V8.5a1,1,0,0,1,2,0V10A2,2,0,0,1,10,12Z"
              fill="#4364f7"/>
    </g>
    <g id="Сгруппировать_566" >
        <path id="Контур_6390"
              d="M11,6.5a1,1,0,0,1-1-1V2H7A1,1,0,0,1,7,0h3a2,2,0,0,1,2,2V5.5A1,1,0,0,1,11,6.5Z" fill="#4364f7"/>
    </g>
    <g id="Сгруппировать_567" >
        <path id="Контур_6391"
              d="M6,7a1,1,0,0,1-.707-1.707l4-4a1,1,0,0,1,1.414,1.414l-4,4A1,1,0,0,1,6,7Z" fill="#4364f7"/>
    </g>
</svg>
