<svg xmlns="http://www.w3.org/2000/svg" width="17" height="18" viewBox="0 0 17 18">
    <g id="Сгруппировать_622"  transform="translate(1 1)">
        <g id="Сгруппировать_620">
            <path id="Контур_6436"
                  d="M15.707,7.293l-3-3a1,1,0,0,0-1.414,1.414L12.586,7H6A1,1,0,0,0,6,9h6.586l-1.293,1.293a1,1,0,1,0,1.414,1.414l3-3A1,1,0,0,0,15.707,7.293Z"
                  fill="#4364f7"/>
        </g>
        <g id="Сгруппировать_621" >
            <path id="Контур_6437"
                  d="M8,17A9,9,0,1,1,13.953,1.25a1,1,0,1,1-1.324,1.5A7,7,0,1,0,8,15a6.922,6.922,0,0,0,4.374-1.535,1,1,0,0,1,1.252,1.56A9.024,9.024,0,0,1,8,17Z"
                  fill="#4364f7"/>
        </g>
    </g>
</svg>
