<svg xmlns="http://www.w3.org/2000/svg" width="143.567" height="143.567" viewBox="0 0 143.567 143.567">
  <g id="logo" transform="translate(0.5 0.5)">
    <path id="XMLID_12_" d="M15.5,37.319v21.1h2.851V18.5H15.5Z" transform="translate(27.27 32.824)" fill="#001218" stroke="#001218" stroke-miterlimit="10" stroke-width="1"/>
    <path id="XMLID_11_" d="M8.536,18.5H5.4V58.419H8.536V40.17H27.926V37.319H8.536Z" transform="translate(8.572 32.824)" fill="#001218" stroke="#001218" stroke-miterlimit="10" stroke-width="1"/>
    <path id="XMLID_10_" d="M23.9,42.451V58.419h3.136V42.451L42.719,18.5H39.012Z" transform="translate(42.821 32.824)" fill="#001218" stroke="#001218" stroke-miterlimit="10" stroke-width="1"/>
    <path id="XMLID_9_" d="M18.2,18.4,31.6,36.363,33.312,33.8,21.622,18.4Z" transform="translate(32.269 32.639)" fill="#001218" stroke="#001218" stroke-miterlimit="10" stroke-width="1"/>
    <path id="XMLID_8_" d="M32.4,21.636H59.488V18.5H32.4Z" transform="translate(58.558 32.824)" fill="#001218" stroke="#001218" stroke-miterlimit="10" stroke-width="1"/>
    <path id="XMLID_7_" d="M35.536,25.1H32.4V46.2h3.136V28.236h23.1V25.1h-23.1Z" transform="translate(58.558 45.043)" fill="#001218" stroke="#001218" stroke-miterlimit="10" stroke-width="1"/>
    <path id="XMLID_6_" d="M44.5,53.605h3.136V21.1L44.5,24.236Z" transform="translate(80.959 37.637)" fill="#001218" stroke="#001218" stroke-miterlimit="10" stroke-width="1"/>
    <path id="XMLID_5_" d="M44.5,18.5v3.707l3.136-3.136V18.5Z" transform="translate(80.959 32.824)" fill="#001218" stroke="#001218" stroke-miterlimit="10" stroke-width="1"/>
    <path id="XMLID_2_" d="M122.252,21.315a71.592,71.592,0,1,0,20.815,50.469A70.946,70.946,0,0,0,122.252,21.315ZM71.783,140.786a69,69,0,1,1,69-69A69.058,69.058,0,0,1,71.783,140.786Z" transform="translate(-0.5 -0.5)" fill="#001218" stroke="#001218" stroke-miterlimit="10" stroke-width="1"/>
  </g>
</svg>
