<svg id="logo" xmlns="http://www.w3.org/2000/svg" width="51" height="51" viewBox="0 0 51 51">
    <path id="XMLID_12_" d="M15.5,25.1v7.4h1v-14h-1Z" fill="#001218" stroke="#001218" stroke-miterlimit="10"
          stroke-width="1"/>
    <path id="XMLID_11_" d="M6.5,18.5H5.4v14H6.5V26.1h6.8v-1H6.5Z" fill="#001218" stroke="#001218"
          stroke-miterlimit="10" stroke-width="1"/>
    <path id="XMLID_10_" d="M23.9,26.9v5.6H25V26.9l5.5-8.4H29.2Z" fill="#001218" stroke="#001218" stroke-miterlimit="10"
          stroke-width="1"/>
    <path id="XMLID_9_" d="M18.2,18.4l4.7,6.3.6-.9-4.1-5.4Z" fill="#001218" stroke="#001218" stroke-miterlimit="10"
          stroke-width="1"/>
    <path id="XMLID_8_" d="M32.4,19.6h9.5V18.5H32.4Z" fill="#001218" stroke="#001218" stroke-miterlimit="10"
          stroke-width="1"/>
    <path id="XMLID_7_" d="M33.5,25.1H32.4v7.4h1.1V26.2h8.1V25.1H33.5Z" fill="#001218" stroke="#001218"
          stroke-miterlimit="10" stroke-width="1"/>
    <path id="XMLID_6_" d="M44.5,32.5h1.1V21.1l-1.1,1.1Z" fill="#001218" stroke="#001218" stroke-miterlimit="10"
          stroke-width="1"/>
    <path id="XMLID_5_" d="M44.5,18.5v1.3l1.1-1.1v-.2Z" fill="#001218" stroke="#001218" stroke-miterlimit="10"
          stroke-width="1"/>
    <path id="XMLID_2_"
          d="M43.2,7.8a25.108,25.108,0,1,0,7.3,17.7A24.882,24.882,0,0,0,43.2,7.8ZM25.5,49.7A24.2,24.2,0,1,1,49.7,25.5,24.22,24.22,0,0,1,25.5,49.7Z"
          fill="#001218" stroke="#001218" stroke-miterlimit="10" stroke-width="1"/>
</svg>
