<svg xmlns="http://www.w3.org/2000/svg" width="15.606" height="15.604" viewBox="0 0 15.606 15.604">
    <g id="Сгруппировать_502"  transform="translate(0.004 0.004)">
        <path id="Контур_6341"
              d="M7.6,15.6A7.878,7.878,0,0,1,.1,10.4,1.4,1.4,0,0,1,.3,9a1.3,1.3,0,0,1,1.3-.5,5.555,5.555,0,0,0,3.6-.6A6.506,6.506,0,0,0,7.8,5.3a5.771,5.771,0,0,0,.6-3.6h0A1.678,1.678,0,0,1,9,.3,1.258,1.258,0,0,1,10.3.1,8.053,8.053,0,0,1,15.5,9a7.989,7.989,0,0,1-6.4,6.4A8.874,8.874,0,0,1,7.6,15.6Zm-5.2-5a5.846,5.846,0,0,0,6.3,2.9,5.961,5.961,0,0,0,4.8-4.8,6.3,6.3,0,0,0-2.9-6.3,8.489,8.489,0,0,1-.9,3.8A8.435,8.435,0,0,1,6.2,9.7,8.489,8.489,0,0,1,2.4,10.6Zm-1.1-.1Z"
              fill="#001218"/>
    </g>
</svg>
