<svg xmlns="http://www.w3.org/2000/svg" width="18" height="12.5" viewBox="0 0 18 12.5">
    <g id="Сгруппировать_525"  opacity="0.9">
        <g id="Сгруппировать_523" >
            <path id="Контур_6356"
                  d="M9,12.5a8.963,8.963,0,0,1-9-9,.945.945,0,0,1,1-1,.945.945,0,0,1,1,1,7,7,0,0,0,14,0,1,1,0,0,1,2,0A8.963,8.963,0,0,1,9,12.5Z"
                  fill="#001218"/>
        </g>
        <g id="Сгруппировать_524" >
            <path id="Контур_6357"
                  d="M9,7A3.543,3.543,0,0,1,5.5,3.5a3.5,3.5,0,0,1,7,0A3.543,3.543,0,0,1,9,7ZM9,2A1.538,1.538,0,0,0,7.5,3.5a1.5,1.5,0,0,0,3,0A1.538,1.538,0,0,0,9,2Z"
                  fill="#001218"/>
        </g>
    </g>
</svg>
