<svg id="Сгруппировать_519" data-name="Сгруппировать 519" xmlns="http://www.w3.org/2000/svg" width="14.987" height="16"
     viewBox="0 0 14.987 16">
    <g id="Сгруппировать_517" >
        <path id="Контур_6352"
              d="M10,4V2A2.006,2.006,0,0,0,8,0H4A2.006,2.006,0,0,0,2,2V4A2.006,2.006,0,0,0,0,6v8a2.006,2.006,0,0,0,2,2h8a2.006,2.006,0,0,0,2-2V6A2.006,2.006,0,0,0,10,4ZM4,2H8V4H4ZM2,14V6h8v8Z"
              fill="#001218"/>
        <rect id="Прямоугольник_466"  width="6" height="2" transform="translate(3 9)"
              fill="#001218"/>
    </g>
    <g id="Сгруппировать_518" >
        <path id="Контур_6353"
              d="M14.1,2.6,10.8.4A1.857,1.857,0,0,0,8.9.3,1.8,1.8,0,0,1,10,2v.2l3,2L12,5.7V8.3l.4.3-.4.7v3.6l2.1-3.2a1.985,1.985,0,0,0-.6-2.8l1.1-1.7A1.753,1.753,0,0,0,14.1,2.6Z"
              fill="#001218"/>
    </g>
</svg>
