<svg xmlns="http://www.w3.org/2000/svg" width="15.5" height="15.499" viewBox="0 0 15.5 15.499">
    <g id="Сгруппировать_787"  transform="translate(-0.25 -0.153)">
        <path id="Контур_6515"
              d="M8,.153A7.75,7.75,0,1,0,15.75,7.9,7.759,7.759,0,0,0,8,.153ZM8,13.9a6,6,0,1,1,6-6A6.006,6.006,0,0,1,8,13.9Z"
              fill="#4364f7"/>
        <path id="Контур_6516"
              d="M8,3.242a2.721,2.721,0,0,0-2.75,2.75.875.875,0,0,0,1.75,0,.978.978,0,0,1,1-1A1.037,1.037,0,0,1,9,6.06a.992.992,0,0,1-.451.892A3.517,3.517,0,0,0,7.128,9.82a.867.867,0,0,0,.87.792l.065,0a.879.879,0,0,0,.81-.925A1.791,1.791,0,0,1,9.65,8.312a2.721,2.721,0,0,0,1.1-2.252A2.787,2.787,0,0,0,8,3.242Zm0,7.12Z"
              fill="#4364f7"/>
        <path id="Контур_6517"
              d="M8.146,10.773a.848.848,0,0,0-.66.16.893.893,0,0,0-.355.572.877.877,0,0,0,.71,1.01.9.9,0,0,0,.154.013.883.883,0,0,0,.867-.762.84.84,0,0,0-.152-.648A.886.886,0,0,0,8.146,10.773Z"
              fill="#4364f7"/>
    </g>
</svg>
