<svg id="Сгруппировать_516" data-name="Сгруппировать 516" xmlns="http://www.w3.org/2000/svg" width="16" height="16"
     viewBox="0 0 16 16">
    <g id="Сгруппировать_505">
        <g id="Сгруппировать_504" >
            <path id="Контур_6342"
                  d="M8,11.5A3.543,3.543,0,0,1,4.5,8,3.543,3.543,0,0,1,8,4.5,3.543,3.543,0,0,1,11.5,8,3.543,3.543,0,0,1,8,11.5Zm0-5A1.5,1.5,0,1,0,9.5,8,1.538,1.538,0,0,0,8,6.5Z"
                  fill="#4364f7"/>
        </g>
    </g>
    <g id="Сгруппировать_515" >
        <g id="Сгруппировать_506" >
            <path id="Контур_6343"
                  d="M15,9H13a.945.945,0,0,1-1-1,.945.945,0,0,1,1-1h2a.945.945,0,0,1,1,1A.945.945,0,0,1,15,9Z"
                  fill="#4364f7"/>
        </g>
        <g id="Сгруппировать_507" >
            <path id="Контур_6344"
                  d="M11.5,5.5a.908.908,0,0,1-.7-.3.967.967,0,0,1,0-1.4l1.4-1.4a.967.967,0,0,1,1.4,0,.967.967,0,0,1,0,1.4L12.2,5.2A.908.908,0,0,1,11.5,5.5Z"
                  fill="#4364f7"/>
        </g>
        <g id="Сгруппировать_508" >
            <path id="Контур_6345"
                  d="M8,4A.945.945,0,0,1,7,3V1A.945.945,0,0,1,8,0,.945.945,0,0,1,9,1V3A.945.945,0,0,1,8,4Z"
                  fill="#4364f7"/>
        </g>
        <g id="Сгруппировать_509" >
            <path id="Контур_6346"
                  d="M4.5,5.5a.908.908,0,0,1-.7-.3L2.3,3.8a1.363,1.363,0,0,1,0-1.5.965.965,0,0,1,1.4,0L5.1,3.7a.967.967,0,0,1,0,1.4A.622.622,0,0,1,4.5,5.5Z"
                  fill="#4364f7"/>
        </g>
        <g id="Сгруппировать_510" >
            <path id="Контур_6347"
                  d="M3,9H1A.945.945,0,0,1,0,8,.945.945,0,0,1,1,7H3A.945.945,0,0,1,4,8,.945.945,0,0,1,3,9Z"
                  fill="#4364f7"/>
        </g>
        <g id="Сгруппировать_511" >
            <path id="Контур_6348"
                  d="M3.1,14a.908.908,0,0,1-.7-.3.967.967,0,0,1,0-1.4l1.4-1.4a.99.99,0,0,1,1.4,1.4L3.8,13.7A1.08,1.08,0,0,1,3.1,14Z"
                  fill="#4364f7"/>
        </g>
        <g id="Сгруппировать_512" >
            <path id="Контур_6349"
                  d="M8,16a.945.945,0,0,1-1-1V13a.945.945,0,0,1,1-1,.945.945,0,0,1,1,1v2A.945.945,0,0,1,8,16Z"
                  fill="#4364f7"/>
        </g>
        <g id="Сгруппировать_513" >
            <path id="Контур_6350"
                  d="M13,14a.908.908,0,0,1-.7-.3l-1.4-1.4a.99.99,0,0,1,1.4-1.4l1.4,1.4a.967.967,0,0,1,0,1.4A1.08,1.08,0,0,1,13,14Z"
                  fill="#4364f7"/>
        </g>
        <g id="Сгруппировать_514" >
            <path id="Контур_6351"
                  d="M15,9H13a.945.945,0,0,1-1-1,.945.945,0,0,1,1-1h2a.945.945,0,0,1,1,1A.945.945,0,0,1,15,9Z"
                  fill="#4364f7"/>
        </g>
    </g>
</svg>
