<svg id="Сгруппировать_529" data-name="Сгруппировать 529" xmlns="http://www.w3.org/2000/svg" width="19.911"
     height="16.8" viewBox="0 0 19.911 16.8">
    <path id="Контур_6365"
          d="M4.3,8.2a4.3,4.3,0,1,0,0,8.6,4.268,4.268,0,0,0,4.3-4.3A4.4,4.4,0,0,0,4.3,8.2Zm0,6.5a2.3,2.3,0,0,1,0-4.6,2.263,2.263,0,0,1,2.3,2.3A2.4,2.4,0,0,1,4.3,14.7Z"
          fill="#001218"/>
    <path id="Контур_6366"
          d="M18.6,6.5H16.7V4.9a.758.758,0,0,1,.2-.4l1.2-1.2a.967.967,0,0,0,0-1.4.967.967,0,0,0-1.4,0L15.5,3.1a2.5,2.5,0,0,0-.8,1.8V6L13.5,1.1A1.391,1.391,0,0,0,12.1,0H6.3a1.284,1.284,0,0,0-1,.4,1.284,1.284,0,0,0-.4,1h0V5.7H4.3a.945.945,0,0,0-1,1,.945.945,0,0,0,1,1A4.717,4.717,0,0,1,9,12.5a.945.945,0,0,0,1,1,.945.945,0,0,0,1-1A6.71,6.71,0,0,0,6.9,6.3V2h4.8l1.2,4.9A2.055,2.055,0,0,0,15,8.5h3V13H16.5a2.5,2.5,0,0,0-2.4-1.6A2.582,2.582,0,0,0,11.5,14a2.6,2.6,0,0,0,5,1h2a1.367,1.367,0,0,0,1.4-1.4V8A1.316,1.316,0,0,0,18.6,6.5Zm-4.5,8.2a.576.576,0,0,1-.6-.6.6.6,0,1,1,.6.6Z"
          fill="#001218"/>
</svg>
