<svg id="Сгруппировать_527" data-name="Сгруппировать 527" xmlns="http://www.w3.org/2000/svg" width="16" height="16"
     viewBox="0 0 16 16">
    <path id="Контур_6361"
          d="M.3,12.7l3,3a.99.99,0,0,0,1.4-1.4L3.4,13H15a1,1,0,0,0,0-2H3.4L4.7,9.7a.967.967,0,0,0,0-1.4A.908.908,0,0,0,4,8a.908.908,0,0,0-.7.3l-3,3A.967.967,0,0,0,.3,12.7Z"
          fill="#001218"/>
    <path id="Контур_6362"
          d="M15.7,3.3l-3-3a.967.967,0,0,0-1.4,0,.967.967,0,0,0,0,1.4L12.6,3H1A.945.945,0,0,0,0,4,.945.945,0,0,0,1,5H12.6L11.3,6.3a.967.967,0,0,0,0,1.4.967.967,0,0,0,1.4,0l3-3A.967.967,0,0,0,15.7,3.3Z"
          fill="#001218"/>
</svg>
