<svg xmlns="http://www.w3.org/2000/svg" width="57.921" height="35.5" viewBox="0 0 57.921 35.5">
    <path id="WalletConnect"
          d="M12,7.055a24.554,24.554,0,0,1,34.206,0L47.34,8.168a1.167,1.167,0,0,1,0,1.675L43.452,13.65a.614.614,0,0,1-.855,0l-1.564-1.532a17.13,17.13,0,0,0-23.863,0l-1.675,1.64a.614.614,0,0,1-.855,0L10.75,9.951a1.167,1.167,0,0,1,0-1.675Zm42.248,7.874,3.461,3.389a1.166,1.166,0,0,1,0,1.674L42.1,35.272a1.228,1.228,0,0,1-1.71,0h0L29.315,24.427a.307.307,0,0,0-.428,0h0L17.811,35.272a1.228,1.228,0,0,1-1.71,0h0L.494,19.992a1.167,1.167,0,0,1,0-1.675l3.461-3.389a1.228,1.228,0,0,1,1.71,0L16.742,25.773a.307.307,0,0,0,.428,0h0L28.245,14.928a1.228,1.228,0,0,1,1.71,0h0L41.032,25.773a.307.307,0,0,0,.427,0L52.536,14.929A1.228,1.228,0,0,1,54.246,14.929Z"
          transform="translate(-0.14 -0.118)" fill="#3b99fc"/>
</svg>
