<svg xmlns="http://www.w3.org/2000/svg" width="24" height="21.999" viewBox="0 0 24 21.999">
    <g id="Сгруппировать_606" transform="translate(-1588 -1437.001)">
        <g id="Сгруппировать_603" >
            <path id="Контур_6423"
                  d="M1609.533,1459h-19.066a2.47,2.47,0,0,1-2.467-2.467v-13.064a2.47,2.47,0,0,1,2.467-2.467H1608.8c.933,0,1.134-.165,1.172-.263a1,1,0,1,1,1.867.717v0a1,1,0,0,1,.16.543v14.531A2.47,2.47,0,0,1,1609.533,1459Zm-19.066-16a.473.473,0,0,0-.467.467v13.064a.473.473,0,0,0,.467.467h19.066a.473.473,0,0,0,.467-.467V1442.9a5.194,5.194,0,0,1-1.185.1Z"
                  fill="#4364f7"/>
        </g>
        <g id="Сгруппировать_604" >
            <path id="Контур_6424"
                  d="M1591,1442.944a1,1,0,0,1-1-1v-2.729a2.165,2.165,0,0,1,2.632-2.17l17,1.639a.969.969,0,0,1,.118.019,2.74,2.74,0,0,1,2.25,2.378l0,.783a1,1,0,0,1-2,0v-.718a.8.8,0,0,0-.63-.478l-17.026-1.646c-.177-.03-.247-.022-.284.01a.238.238,0,0,0-.06.183v2.729A1,1,0,0,1,1591,1442.944Z"
                  fill="#4364f7"/>
        </g>
        <g id="Сгруппировать_605" >
            <path id="Контур_6425"
                  d="M1592.61,1451.667a1.734,1.734,0,1,1,1.734-1.733A1.735,1.735,0,0,1,1592.61,1451.667Zm0-2a.267.267,0,0,0-.266.267c0,.294.533.294.533,0A.267.267,0,0,0,1592.61,1449.667Z"
                  fill="#4364f7"/>
        </g>
    </g>
</svg>
