<svg id="Сгруппировать_489" data-name="Сгруппировать 489" xmlns="http://www.w3.org/2000/svg" width="14" height="13"
     viewBox="0 0 14 13">
    <path id="Контур_6328"
          d="M5,4H7.8V5.4h0A3.005,3.005,0,0,1,10.5,4c3,0,3.5,1.8,3.5,4.2V13H11.1V8.7c0-1,0-2.3-1.5-2.3S7.9,7.5,7.9,8.7V13H5Z"
          fill="#001218"/>
    <path id="Контур_6329"  d="M0,4H3v9H0Z" fill="#001218"/>
    <path id="Контур_6330"
          d="M3,1.5A1.538,1.538,0,0,1,1.5,3,1.538,1.538,0,0,1,0,1.5,1.538,1.538,0,0,1,1.5,0,1.538,1.538,0,0,1,3,1.5Z"
          fill="#001218"/>
</svg>
